<svg width="201" height="30" viewBox="0 0 201 30" fill="none" xmlns="http://www.w3.org/2000/svg">
<mask id="mask0" mask-type="alpha" maskUnits="userSpaceOnUse" x="0" y="0" width="201" height="30">
<path d="M0 29.792H200.78V0H0V29.792Z" fill="white"/>
</mask>
<g mask="url(#mask0)">
<path fill-rule="evenodd" clip-rule="evenodd" d="M21.56 7.328C20.8012 6.74169 20.0026 6.20874 19.17 5.733C18.3754 5.28264 17.5519 4.88511 16.705 4.543C15.805 4.619 14.88 4.781 13.943 5.029C15.5417 5.44598 17.0784 6.0724 18.513 6.892C20.042 7.762 21.383 8.796 22.51 9.924C22.268 9.03313 21.9502 8.16463 21.56 7.328" fill="#F05024"/>
<path fill-rule="evenodd" clip-rule="evenodd" d="M21.56 7.328C20.8012 6.74169 20.0026 6.20874 19.17 5.733C18.3754 5.28264 17.5519 4.88511 16.705 4.543C15.805 4.619 14.88 4.781 13.943 5.029C15.5417 5.44598 17.0784 6.0724 18.513 6.892C20.042 7.762 21.383 8.796 22.51 9.924C22.268 9.03313 21.9502 8.16463 21.56 7.328V7.328Z" stroke="#F05024" stroke-width="0.5"/>
<path fill-rule="evenodd" clip-rule="evenodd" d="M11.184 4.556C12.0791 4.18781 13.0007 3.88763 13.941 3.658C12.6637 3.34442 11.3542 3.18131 10.039 3.172C9.849 3.172 9.662 3.179 9.475 3.186C8.963 3.61 8.478 4.106 8.027 4.666C8.669 4.561 9.342 4.506 10.039 4.506C10.414 4.506 10.797 4.525 11.184 4.556" fill="#F05024"/>
<path fill-rule="evenodd" clip-rule="evenodd" d="M11.184 4.556C12.0791 4.18781 13.0007 3.88763 13.941 3.658C12.6637 3.34442 11.3542 3.18131 10.039 3.172C9.849 3.172 9.662 3.179 9.475 3.186C8.963 3.61 8.478 4.106 8.027 4.666C8.669 4.561 9.342 4.506 10.039 4.506C10.414 4.506 10.797 4.525 11.184 4.556V4.556Z" stroke="#F05024" stroke-width="0.5"/>
<path fill-rule="evenodd" clip-rule="evenodd" d="M27.24 14.857C27.0074 15.549 26.7181 16.2206 26.375 16.865C26.45 17.318 26.492 17.767 26.492 18.205C26.491 19.4 26.217 20.523 25.642 21.536C24.952 22.753 23.902 23.68 22.575 24.318C22.3589 24.4197 22.1387 24.5125 21.915 24.596C21.533 25.2163 21.1009 25.8042 20.623 26.354C21.519 26.171 22.368 25.894 23.15 25.52C24.686 24.785 25.964 23.67 26.8 22.194C27.496 20.969 27.823 19.605 27.823 18.205C27.822 17.101 27.618 15.974 27.24 14.857" fill="#F05024"/>
<path fill-rule="evenodd" clip-rule="evenodd" d="M27.24 14.857C27.0074 15.549 26.7181 16.2206 26.375 16.865C26.45 17.318 26.492 17.767 26.492 18.205C26.491 19.4 26.217 20.523 25.642 21.536C24.952 22.753 23.902 23.68 22.575 24.318C22.3589 24.4197 22.1387 24.5125 21.915 24.596C21.533 25.2163 21.1009 25.8042 20.623 26.354C21.519 26.171 22.368 25.894 23.15 25.52C24.686 24.785 25.964 23.67 26.8 22.194C27.496 20.969 27.823 19.605 27.823 18.205C27.822 17.101 27.618 15.974 27.24 14.857V14.857Z" stroke="#F05024" stroke-width="0.5"/>
<path fill-rule="evenodd" clip-rule="evenodd" d="M23.7 9.238C23.963 10.133 24.164 11.072 24.3 12.043C24.328 12.084 24.36 12.125 24.389 12.166C24.9708 13.0055 25.4515 13.9108 25.821 14.863C26.076 14.189 26.259 13.518 26.363 12.859C26.0974 12.3598 25.8043 11.8757 25.485 11.409C24.9495 10.639 24.3526 9.91361 23.7 9.24" fill="#F05024"/>
<path fill-rule="evenodd" clip-rule="evenodd" d="M23.7 9.238C23.963 10.133 24.164 11.072 24.3 12.043C24.328 12.084 24.36 12.125 24.389 12.166C24.9708 13.0055 25.4515 13.9108 25.821 14.863C26.076 14.189 26.259 13.518 26.363 12.859C26.0974 12.3598 25.8043 11.8757 25.485 11.409C24.9495 10.639 24.3526 9.91361 23.7 9.24V9.238Z" stroke="#F05024" stroke-width="0.5"/>
<path fill-rule="evenodd" clip-rule="evenodd" d="M4.243 20.554C3.97467 19.6351 3.77479 18.6975 3.645 17.749C3.615 17.708 3.583 17.667 3.555 17.626C2.97284 16.7865 2.49184 15.8813 2.122 14.929C1.8731 15.577 1.69148 16.2489 1.58 16.934C1.842 17.424 2.132 17.908 2.459 18.383C2.975 19.133 3.576 19.859 4.243 20.553" fill="#F05024"/>
<path fill-rule="evenodd" clip-rule="evenodd" d="M4.243 20.554C3.97467 19.6351 3.77479 18.6975 3.645 17.749C3.615 17.708 3.583 17.667 3.555 17.626C2.97284 16.7865 2.49184 15.8813 2.122 14.929C1.8731 15.577 1.69148 16.2489 1.58 16.934C1.842 17.424 2.132 17.908 2.459 18.383C2.975 19.133 3.576 19.859 4.243 20.553V20.554Z" stroke="#F05024" stroke-width="0.5"/>
<path fill-rule="evenodd" clip-rule="evenodd" d="M1.452 11.587C1.452 10.393 1.727 9.27 2.301 8.257C2.992 7.039 4.042 6.112 5.368 5.475C5.581 5.373 5.802 5.282 6.028 5.195C6.421 4.56 6.853 3.974 7.321 3.438C6.424 3.621 5.575 3.898 4.794 4.272C3.258 5.007 1.98 6.122 1.144 7.598C0.447003 8.823 0.120003 10.187 0.120003 11.587C0.120003 12.692 0.324003 13.818 0.703003 14.935C0.935297 14.2434 1.22428 13.5721 1.567 12.928C1.49213 12.4849 1.45333 12.0364 1.451 11.587" fill="#F05024"/>
<path fill-rule="evenodd" clip-rule="evenodd" d="M1.452 11.587C1.452 10.393 1.727 9.27 2.301 8.257C2.992 7.039 4.042 6.112 5.368 5.475C5.581 5.373 5.802 5.282 6.028 5.195C6.421 4.56 6.853 3.974 7.321 3.438C6.424 3.621 5.575 3.898 4.794 4.272C3.258 5.007 1.98 6.122 1.144 7.598C0.447003 8.823 0.120003 10.187 0.120003 11.587C0.120003 12.692 0.324003 13.818 0.703003 14.935C0.935297 14.2434 1.22428 13.5721 1.567 12.928C1.49213 12.4849 1.45333 12.0364 1.451 11.587H1.452Z" stroke="#F05024" stroke-width="0.5"/>
<path fill-rule="evenodd" clip-rule="evenodd" d="M16.76 25.236C15.841 25.614 14.919 25.91 14.002 26.134C15.2796 26.4476 16.5895 26.6103 17.905 26.619C18.095 26.619 18.281 26.614 18.468 26.606C18.981 26.182 19.466 25.687 19.917 25.126C19.2517 25.2333 18.5789 25.2869 17.905 25.286C17.53 25.286 17.147 25.267 16.76 25.236" fill="#F05024"/>
<path fill-rule="evenodd" clip-rule="evenodd" d="M16.76 25.236C15.841 25.614 14.919 25.91 14.002 26.134C15.2796 26.4476 16.5895 26.6103 17.905 26.619C18.095 26.619 18.281 26.614 18.468 26.606C18.981 26.182 19.466 25.687 19.917 25.126C19.2517 25.2333 18.5789 25.2869 17.905 25.286C17.53 25.286 17.147 25.267 16.76 25.236V25.236Z" stroke="#F05024" stroke-width="0.5"/>
<path fill-rule="evenodd" clip-rule="evenodd" d="M9.43 22.9C7.96812 22.0725 6.62381 21.0528 5.433 19.868C5.686 20.789 6.006 21.658 6.383 22.464C7.126 23.036 7.92 23.574 8.773 24.06C9.585 24.521 10.41 24.914 11.238 25.25C12.138 25.173 13.063 25.011 14 24.763C12.4012 24.3461 10.8646 23.7197 9.43 22.9Z" fill="#F05024"/>
<path fill-rule="evenodd" clip-rule="evenodd" d="M9.43 22.9C7.96812 22.0725 6.62381 21.0528 5.433 19.868C5.686 20.789 6.006 21.658 6.383 22.464C7.126 23.036 7.92 23.574 8.773 24.06C9.585 24.521 10.41 24.914 11.238 25.25C12.138 25.173 13.063 25.011 14 24.763C12.4012 24.3461 10.8646 23.7197 9.43 22.9Z" stroke="#F05024" stroke-width="0.5"/>
<path fill-rule="evenodd" clip-rule="evenodd" d="M5.433 19.868C4.99465 18.2472 4.7747 16.5751 4.779 14.896C4.779 13.146 5.012 11.478 5.429 9.948C4.77455 10.605 4.17769 11.3169 3.645 12.076C3.51536 13.0104 3.44955 13.9526 3.448 14.896C3.448 15.872 3.516 16.825 3.644 17.749C4.17867 18.5058 4.77755 19.2151 5.434 19.869" fill="#389ED8"/>
<path fill-rule="evenodd" clip-rule="evenodd" d="M5.433 19.868C4.99465 18.2472 4.7747 16.5751 4.779 14.896C4.779 13.146 5.012 11.478 5.429 9.948C4.77455 10.605 4.17769 11.3169 3.645 12.076C3.51536 13.0104 3.44955 13.9526 3.448 14.896C3.448 15.872 3.516 16.825 3.644 17.749C4.17867 18.5058 4.77755 19.2151 5.434 19.869L5.433 19.868Z" stroke="#389ED8" stroke-width="0.5"/>
<path fill-rule="evenodd" clip-rule="evenodd" d="M21.56 7.328C22.3197 7.91078 23.035 8.54921 23.7 9.238C23.286 7.80586 22.6805 6.43616 21.9 5.166C21.2498 4.92141 20.5763 4.74415 19.89 4.637C20.514 5.409 21.075 6.297 21.544 7.293L21.56 7.328" fill="#389ED8"/>
<path fill-rule="evenodd" clip-rule="evenodd" d="M21.56 7.328C22.3197 7.91078 23.035 8.54921 23.7 9.238C23.286 7.80586 22.6805 6.43616 21.9 5.166C21.2498 4.92141 20.5763 4.74415 19.89 4.637C20.514 5.409 21.075 6.297 21.544 7.293L21.56 7.328V7.328Z" stroke="#389ED8" stroke-width="0.5"/>
<path fill-rule="evenodd" clip-rule="evenodd" d="M24.3 12.092C23.7655 11.3302 23.1666 10.6155 22.51 9.956C22.931 11.492 23.165 13.056 23.165 14.961C23.165 16.231 22.932 18.346 22.515 19.876C23.1688 19.2244 23.7653 18.5178 24.298 17.764C24.439 16.8365 24.5052 15.8991 24.496 14.961C24.496 14.325 24.427 13.016 24.299 12.091" fill="#389ED8"/>
<path fill-rule="evenodd" clip-rule="evenodd" d="M24.3 12.092C23.7655 11.3302 23.1666 10.6155 22.51 9.956C22.931 11.492 23.165 13.056 23.165 14.961C23.165 16.231 22.932 18.346 22.515 19.876C23.1688 19.2244 23.7653 18.5178 24.298 17.764C24.439 16.8365 24.5052 15.8991 24.496 14.961C24.496 14.325 24.427 13.016 24.299 12.091L24.3 12.092Z" stroke="#389ED8" stroke-width="0.5"/>
<path fill-rule="evenodd" clip-rule="evenodd" d="M10.479 2.467C11.567 1.809 12.74 1.455 13.972 1.454C15.203 1.455 16.376 1.809 17.465 2.467C17.797 2.668 18.12 2.906 18.435 3.163C19.18 3.189 19.905 3.27 20.601 3.41C19.866 2.574 19.046 1.867 18.153 1.326C16.883 0.556003 15.463 0.120003 13.972 0.120003C12.482 0.120003 11.061 0.555003 9.79 1.325C8.888 1.872 8.062 2.59 7.32 3.437C8.0303 3.29465 8.75102 3.21037 9.475 3.185C9.79174 2.92094 10.1273 2.6803 10.479 2.465" fill="#389ED8"/>
<path fill-rule="evenodd" clip-rule="evenodd" d="M10.479 2.467C11.567 1.809 12.74 1.455 13.972 1.454C15.203 1.455 16.376 1.809 17.465 2.467C17.797 2.668 18.12 2.906 18.435 3.163C19.18 3.189 19.905 3.27 20.601 3.41C19.866 2.574 19.046 1.867 18.153 1.326C16.883 0.556003 15.463 0.120003 13.972 0.120003C12.482 0.120003 11.061 0.555003 9.79 1.325C8.888 1.872 8.062 2.59 7.32 3.437C8.0303 3.29465 8.75102 3.21037 9.475 3.185C9.79174 2.92094 10.1273 2.6803 10.479 2.465V2.467Z" stroke="#389ED8" stroke-width="0.5"/>
<path fill-rule="evenodd" clip-rule="evenodd" d="M23.7 20.532C23.0379 21.2227 22.3252 21.8631 21.568 22.448C21.2375 23.1614 20.846 23.8449 20.398 24.491C20.2445 24.7081 20.0841 24.9202 19.917 25.127C20.5993 25.0185 21.2688 24.8405 21.915 24.596C22.215 24.112 22.495 23.604 22.748 23.069C23.1309 22.2494 23.4492 21.4012 23.7 20.532" fill="#389ED8"/>
<path fill-rule="evenodd" clip-rule="evenodd" d="M23.7 20.532C23.0379 21.2227 22.3252 21.8631 21.568 22.448C21.2375 23.1614 20.846 23.8449 20.398 24.491C20.2445 24.7081 20.0841 24.9202 19.917 25.127C20.5993 25.0185 21.2688 24.8405 21.915 24.596C22.215 24.112 22.495 23.604 22.748 23.069C23.1309 22.2494 23.4492 21.4012 23.7 20.532V20.532Z" stroke="#389ED8" stroke-width="0.5"/>
<path fill-rule="evenodd" clip-rule="evenodd" d="M6.383 22.464C5.62334 21.8812 4.90804 21.2428 4.243 20.554C4.65726 21.9862 5.26307 23.3559 6.044 24.626C6.669 24.863 7.341 25.041 8.054 25.155C7.39833 24.3394 6.84302 23.448 6.4 22.5C6.395 22.488 6.39 22.475 6.384 22.464" fill="#389ED8"/>
<path fill-rule="evenodd" clip-rule="evenodd" d="M6.383 22.464C5.62334 21.8812 4.90804 21.2428 4.243 20.554C4.65726 21.9862 5.26307 23.3559 6.044 24.626C6.669 24.863 7.341 25.041 8.054 25.155C7.39833 24.3394 6.84302 23.448 6.4 22.5C6.395 22.488 6.39 22.475 6.384 22.464H6.383Z" stroke="#389ED8" stroke-width="0.5"/>
<path fill-rule="evenodd" clip-rule="evenodd" d="M17.465 27.326C16.376 27.983 15.203 28.337 13.972 28.338C12.74 28.338 11.567 27.983 10.479 27.326C10.1395 27.117 9.8154 26.884 9.509 26.629C8.78112 26.6062 8.05635 26.5236 7.342 26.382C8.077 27.218 8.897 27.925 9.79 28.466C11.06 29.236 12.481 29.672 13.972 29.671C15.462 29.671 16.883 29.236 18.153 28.466C19.056 27.919 19.883 27.202 20.623 26.353C19.9127 26.4958 19.192 26.5807 18.468 26.607C18.144 26.874 17.809 27.117 17.465 27.326" fill="#389ED8"/>
<path fill-rule="evenodd" clip-rule="evenodd" d="M17.465 27.326C16.376 27.983 15.203 28.337 13.972 28.338C12.74 28.338 11.567 27.983 10.479 27.326C10.1395 27.117 9.8154 26.884 9.509 26.629C8.78112 26.6062 8.05635 26.5236 7.342 26.382C8.077 27.218 8.897 27.925 9.79 28.466C11.06 29.236 12.481 29.672 13.972 29.671C15.462 29.671 16.883 29.236 18.153 28.466C19.056 27.919 19.883 27.202 20.623 26.353C19.9127 26.4958 19.192 26.5807 18.468 26.607C18.144 26.874 17.809 27.117 17.465 27.326V27.326Z" stroke="#389ED8" stroke-width="0.5"/>
<path fill-rule="evenodd" clip-rule="evenodd" d="M4.243 9.26C4.90571 8.56954 5.61866 7.92912 6.376 7.344C6.72 6.606 7.113 5.922 7.546 5.302C7.701 5.081 7.863 4.87 8.027 4.665C7.3444 4.77335 6.67461 4.95093 6.028 5.195C5.728 5.68 5.448 6.188 5.195 6.723C4.821 7.518 4.505 8.369 4.243 9.259" fill="#389ED8"/>
<path fill-rule="evenodd" clip-rule="evenodd" d="M4.243 9.26C4.90571 8.56954 5.61866 7.92912 6.376 7.344C6.72 6.606 7.113 5.922 7.546 5.302C7.701 5.081 7.863 4.87 8.027 4.665C7.3444 4.77335 6.67461 4.95093 6.028 5.195C5.728 5.68 5.448 6.188 5.195 6.723C4.821 7.518 4.505 8.369 4.243 9.259V9.26Z" stroke="#389ED8" stroke-width="0.5"/>
<path fill-rule="evenodd" clip-rule="evenodd" d="M24.3 12.043C24.1696 11.0945 23.9691 10.1569 23.7 9.238C23.035 8.54922 22.3196 7.91079 21.56 7.328C21.938 8.133 22.258 9.003 22.51 9.924C23.188 10.602 23.785 11.314 24.3 12.044" fill="#7E427D"/>
<path fill-rule="evenodd" clip-rule="evenodd" d="M24.3 12.043C24.1696 11.0945 23.9691 10.1569 23.7 9.238C23.035 8.54922 22.3196 7.91079 21.56 7.328C21.938 8.133 22.258 9.003 22.51 9.924C23.188 10.602 23.785 11.314 24.3 12.044V12.043Z" stroke="#7E427D" stroke-width="0.5"/>
<path fill-rule="evenodd" clip-rule="evenodd" d="M3.645 17.749C3.779 18.72 3.98 19.659 4.243 20.554C4.90813 21.2427 5.62343 21.8811 6.383 22.464C5.99301 21.6273 5.67519 20.7588 5.433 19.868C4.77735 19.2139 4.17915 18.5046 3.645 17.748" fill="#7E427D"/>
<path fill-rule="evenodd" clip-rule="evenodd" d="M3.645 17.749C3.779 18.72 3.98 19.659 4.243 20.554C4.90813 21.2427 5.62343 21.8811 6.383 22.464C5.99301 21.6273 5.67519 20.7588 5.433 19.868C4.77735 19.2139 4.17915 18.5046 3.645 17.748V17.749Z" stroke="#7E427D" stroke-width="0.5"/>
<path fill-rule="evenodd" clip-rule="evenodd" d="M19.916 25.127C19.466 25.687 18.981 26.183 18.468 26.607C19.192 26.5811 19.9127 26.4965 20.623 26.354C21.09 25.819 21.523 25.231 21.915 24.596C21.295 24.834 20.625 25.012 19.916 25.126" fill="#7E427D"/>
<path fill-rule="evenodd" clip-rule="evenodd" d="M19.916 25.127C19.466 25.687 18.981 26.183 18.468 26.607C19.192 26.5811 19.9127 26.4965 20.623 26.354C21.09 25.819 21.523 25.231 21.915 24.596C21.295 24.834 20.625 25.012 19.916 25.126V25.127Z" stroke="#7E427D" stroke-width="0.5"/>
<path fill-rule="evenodd" clip-rule="evenodd" d="M8.027 4.665C8.477 4.105 8.963 3.61 9.476 3.185C8.734 3.215 8.013 3.297 7.321 3.438C6.853 3.973 6.421 4.561 6.028 5.196C6.649 4.959 7.318 4.781 8.028 4.666" fill="#7E427D"/>
<path fill-rule="evenodd" clip-rule="evenodd" d="M8.027 4.665C8.477 4.105 8.963 3.61 9.476 3.185C8.734 3.215 8.013 3.297 7.321 3.438C6.853 3.973 6.421 4.561 6.028 5.196C6.649 4.959 7.318 4.781 8.028 4.666L8.027 4.665Z" stroke="#7E427D" stroke-width="0.5"/>
<path fill-rule="evenodd" clip-rule="evenodd" d="M18.557 22.875L18.889 23.453L18.557 22.875Z" fill="#FFDD16"/>
<path fill-rule="evenodd" clip-rule="evenodd" d="M6.044 24.626C5.82275 24.5431 5.60491 24.4513 5.391 24.351C4.076 23.722 3.031 22.804 2.338 21.601C1.751 20.578 1.471 19.441 1.47 18.231C1.47 17.807 1.511 17.373 1.58 16.934C1.2336 16.2925 0.940607 15.6236 0.704 14.934C0.338 16.034 0.14 17.144 0.139 18.232C0.139 19.649 0.473 21.029 1.184 22.265C2.022 23.725 3.294 24.828 4.819 25.555C5.62302 25.9326 6.47036 26.21 7.342 26.381C6.86078 25.8335 6.42658 25.2464 6.044 24.626" fill="#F5B918"/>
<path fill-rule="evenodd" clip-rule="evenodd" d="M6.044 24.626C5.82275 24.5431 5.60491 24.4513 5.391 24.351C4.076 23.722 3.031 22.804 2.338 21.601C1.751 20.578 1.471 19.441 1.47 18.231C1.47 17.807 1.511 17.373 1.58 16.934C1.2336 16.2925 0.940607 15.6236 0.704 14.934C0.338 16.034 0.14 17.144 0.139 18.232C0.139 19.649 0.473 21.029 1.184 22.265C2.022 23.725 3.294 24.828 4.819 25.555C5.62302 25.9326 6.47036 26.21 7.342 26.381C6.86078 25.8335 6.42658 25.2464 6.044 24.626V24.626Z" stroke="#F5B918" stroke-width="0.5"/>
<path fill-rule="evenodd" clip-rule="evenodd" d="M21.9 5.166C22.122 5.251 22.342 5.341 22.552 5.441C23.868 6.071 24.912 6.988 25.606 8.191C26.192 9.214 26.472 10.351 26.473 11.561C26.473 11.985 26.433 12.419 26.363 12.859C26.716 13.517 27.012 14.185 27.24 14.857C27.606 13.757 27.804 12.648 27.805 11.56C27.805 10.143 27.471 8.763 26.759 7.527C25.922 6.067 24.649 4.964 23.125 4.237C22.3207 3.85935 21.473 3.58194 20.601 3.411C21.0831 3.95773 21.5174 4.54489 21.899 5.166" fill="#F5B918"/>
<path fill-rule="evenodd" clip-rule="evenodd" d="M21.9 5.166C22.122 5.251 22.342 5.341 22.552 5.441C23.868 6.071 24.912 6.988 25.606 8.191C26.192 9.214 26.472 10.351 26.473 11.561C26.473 11.985 26.433 12.419 26.363 12.859C26.716 13.517 27.012 14.185 27.24 14.857C27.606 13.757 27.804 12.648 27.805 11.56C27.805 10.143 27.471 8.763 26.759 7.527C25.922 6.067 24.649 4.964 23.125 4.237C22.3207 3.85935 21.473 3.58194 20.601 3.411C21.0831 3.95773 21.5174 4.54489 21.899 5.166H21.9Z" stroke="#F5B918" stroke-width="0.5"/>
<path fill-rule="evenodd" clip-rule="evenodd" d="M14.002 26.134C13.0598 25.9089 12.1359 25.6134 11.238 25.25C10.827 25.285 10.418 25.308 10.021 25.308C9.34 25.308 8.682 25.256 8.054 25.155C8.507 25.715 8.994 26.207 9.509 26.629C9.679 26.635 9.849 26.641 10.021 26.641C11.306 26.641 12.646 26.466 14.002 26.134Z" fill="#F5B918"/>
<path fill-rule="evenodd" clip-rule="evenodd" d="M14.002 26.134C13.0598 25.9089 12.1359 25.6134 11.238 25.25C10.827 25.285 10.418 25.308 10.021 25.308C9.34 25.308 8.682 25.256 8.054 25.155C8.507 25.715 8.994 26.207 9.509 26.629C9.679 26.635 9.849 26.641 10.021 26.641C11.306 26.641 12.646 26.466 14.002 26.134Z" stroke="#F5B918" stroke-width="0.5"/>
<path fill-rule="evenodd" clip-rule="evenodd" d="M13.941 3.658C14.86 3.878 15.784 4.168 16.705 4.542C17.117 4.507 17.525 4.483 17.923 4.484C18.603 4.484 19.261 4.537 19.89 4.637C19.456 4.0975 18.9681 3.60362 18.434 3.163C18.2641 3.15585 18.0941 3.15185 17.924 3.151C16.638 3.151 15.297 3.326 13.941 3.658" fill="#F5B918"/>
<path fill-rule="evenodd" clip-rule="evenodd" d="M13.941 3.658C14.86 3.878 15.784 4.168 16.705 4.542C17.117 4.507 17.525 4.483 17.923 4.484C18.603 4.484 19.261 4.537 19.89 4.637C19.456 4.0975 18.9681 3.60362 18.434 3.163C18.2641 3.15585 18.0941 3.15185 17.924 3.151C16.638 3.151 15.297 3.326 13.941 3.658V3.658Z" stroke="#F5B918" stroke-width="0.5"/>
<path fill-rule="evenodd" clip-rule="evenodd" d="M3.646 12.077C3.779 11.1 3.98 10.158 4.243 9.259C3.573 9.96 2.973 10.693 2.456 11.449C2.126 11.933 1.832 12.428 1.568 12.927C1.676 13.586 1.864 14.256 2.122 14.928C2.48971 13.9656 2.97077 13.0505 3.555 12.202C3.583 12.159 3.616 12.119 3.645 12.077" fill="#F5B918"/>
<path fill-rule="evenodd" clip-rule="evenodd" d="M3.646 12.077C3.779 11.1 3.98 10.158 4.243 9.259C3.573 9.96 2.973 10.693 2.456 11.449C2.126 11.933 1.832 12.428 1.568 12.927C1.676 13.586 1.864 14.256 2.122 14.928C2.48971 13.9656 2.97077 13.0505 3.555 12.202C3.583 12.159 3.616 12.119 3.645 12.077H3.646Z" stroke="#F5B918" stroke-width="0.5"/>
<path fill-rule="evenodd" clip-rule="evenodd" d="M24.389 17.59C24.359 17.633 24.327 17.674 24.299 17.715C24.1694 18.6675 23.9692 19.6091 23.7 20.532C24.37 19.832 24.97 19.099 25.488 18.343C25.818 17.859 26.111 17.364 26.375 16.865C26.2595 16.1804 26.0738 15.5096 25.821 14.863C25.4535 15.8256 24.9728 16.741 24.389 17.59" fill="#F5B918"/>
<path fill-rule="evenodd" clip-rule="evenodd" d="M24.389 17.59C24.359 17.633 24.327 17.674 24.299 17.715C24.1694 18.6675 23.9692 19.6091 23.7 20.532C24.37 19.832 24.97 19.099 25.488 18.343C25.818 17.859 26.111 17.364 26.375 16.865C26.2595 16.1804 26.0738 15.5096 25.821 14.863C25.4535 15.8256 24.9728 16.741 24.389 17.59V17.59Z" stroke="#F5B918" stroke-width="0.5"/>
<path fill-rule="evenodd" clip-rule="evenodd" d="M19.22 24.03C20.0376 23.5569 20.8217 23.0284 21.567 22.448C21.9566 21.6086 22.2737 20.7374 22.515 19.844C21.3363 21.0258 20.0052 22.0451 18.557 22.875C17.1276 23.702 15.5954 24.3368 14 24.763C14.937 25.005 15.862 25.164 16.76 25.236C17.587 24.896 18.41 24.497 19.22 24.031" fill="#F5B918"/>
<path d="M19.22 24.03C20.0376 23.5569 20.8217 23.0284 21.567 22.448C21.9566 21.6086 22.2737 20.7374 22.515 19.844C21.3363 21.0258 20.0052 22.0451 18.557 22.875C17.1276 23.702 15.5954 24.3368 14 24.763C14.937 25.005 15.862 25.164 16.76 25.236C17.587 24.896 18.41 24.497 19.22 24.031" stroke="#F5B918" stroke-width="0.5"/>
<path fill-rule="evenodd" clip-rule="evenodd" d="M9.387 6.917C10.8159 6.08977 12.3478 5.45495 13.943 5.029C13.0384 4.79207 12.1149 4.63381 11.183 4.556C10.356 4.896 9.533 5.295 8.723 5.761C7.90543 6.23445 7.12126 6.76335 6.376 7.344C5.9868 8.18347 5.66998 9.05463 5.429 9.948C6.60775 8.76623 7.93881 7.74691 9.387 6.917" fill="#F5B918"/>
<path fill-rule="evenodd" clip-rule="evenodd" d="M9.387 6.917C10.8159 6.08977 12.3478 5.45495 13.943 5.029C13.0384 4.79207 12.1149 4.63381 11.183 4.556C10.356 4.896 9.533 5.295 8.723 5.761C7.90543 6.23445 7.12126 6.76335 6.376 7.344C5.9868 8.18347 5.66998 9.05463 5.429 9.948C6.60775 8.76623 7.93881 7.74691 9.387 6.917V6.917Z" stroke="#F5B918" stroke-width="0.5"/>
<path fill-rule="evenodd" clip-rule="evenodd" d="M16.705 4.542C15.8071 4.1785 14.8832 3.883 13.941 3.658C13.025 3.883 12.102 4.178 11.184 4.556C12.082 4.628 13.007 4.786 13.944 5.029C14.88 4.781 15.806 4.619 16.705 4.542Z" fill="#E9831C"/>
<path fill-rule="evenodd" clip-rule="evenodd" d="M16.705 4.542C15.8071 4.1785 14.8832 3.883 13.941 3.658C13.025 3.883 12.102 4.178 11.184 4.556C12.082 4.628 13.007 4.786 13.944 5.029C14.88 4.781 15.806 4.619 16.705 4.542Z" stroke="#E9831C" stroke-width="0.5"/>
<path fill-rule="evenodd" clip-rule="evenodd" d="M25.821 14.864C26.081 15.536 26.268 16.206 26.375 16.864C26.725 16.204 27.015 15.533 27.24 14.857C27.0029 14.1678 26.7096 13.4992 26.363 12.858C26.259 13.518 26.076 14.189 25.821 14.864" fill="#E9831C"/>
<path fill-rule="evenodd" clip-rule="evenodd" d="M25.821 14.864C26.081 15.536 26.268 16.206 26.375 16.864C26.725 16.204 27.015 15.533 27.24 14.857C27.0029 14.1678 26.7096 13.4992 26.363 12.858C26.259 13.518 26.076 14.189 25.821 14.864V14.864Z" stroke="#E9831C" stroke-width="0.5"/>
<path fill-rule="evenodd" clip-rule="evenodd" d="M11.238 25.25C12.159 25.623 13.084 25.915 14.002 26.134C14.919 25.91 15.841 25.614 16.759 25.236C15.8274 25.1578 14.9043 24.9992 14 24.762C13.0952 25.0045 12.1711 25.1677 11.238 25.25" fill="#E9831C"/>
<path fill-rule="evenodd" clip-rule="evenodd" d="M11.238 25.25C12.159 25.623 13.084 25.915 14.002 26.134C14.919 25.91 15.841 25.614 16.759 25.236C15.8274 25.1578 14.9043 24.9992 14 24.762C13.0952 25.0045 12.1711 25.1677 11.238 25.25V25.25Z" stroke="#E9831C" stroke-width="0.5"/>
<path fill-rule="evenodd" clip-rule="evenodd" d="M2.122 14.928C1.86922 14.2821 1.68357 13.6119 1.568 12.928C1.22511 13.572 0.936126 14.2433 0.704002 14.935C0.932002 15.607 1.227 16.275 1.58 16.934C1.684 16.274 1.867 15.603 2.122 14.928Z" fill="#E9831C"/>
<path fill-rule="evenodd" clip-rule="evenodd" d="M2.122 14.928C1.86922 14.2821 1.68357 13.6119 1.568 12.928C1.22511 13.572 0.936126 14.2433 0.704002 14.935C0.932002 15.607 1.227 16.275 1.58 16.934C1.684 16.274 1.867 15.603 2.122 14.928Z" stroke="#E9831C" stroke-width="0.5"/>
<path fill-rule="evenodd" clip-rule="evenodd" d="M5.429 9.948C5.681 9.025 5.999 8.152 6.376 7.344C5.61859 7.92868 4.90563 8.56877 4.243 9.259C3.97416 10.1819 3.77428 11.1235 3.645 12.076C4.17801 11.3169 4.7752 10.6049 5.43 9.948" fill="#00863E"/>
<path fill-rule="evenodd" clip-rule="evenodd" d="M5.429 9.948C5.681 9.025 5.999 8.152 6.376 7.344C5.61859 7.92868 4.90563 8.56877 4.243 9.259C3.97416 10.1819 3.77428 11.1235 3.645 12.076C4.17801 11.3169 4.7752 10.6049 5.43 9.948H5.429Z" stroke="#00863E" stroke-width="0.5"/>
<path fill-rule="evenodd" clip-rule="evenodd" d="M19.89 4.637C20.602 4.751 21.275 4.929 21.9 5.167C21.766 4.952 21.63 4.741 21.488 4.537C21.2129 4.14534 20.9164 3.7691 20.6 3.41C19.8859 3.26869 19.1615 3.18608 18.434 3.163C18.949 3.585 19.436 4.078 19.888 4.637" fill="#00863E"/>
<path fill-rule="evenodd" clip-rule="evenodd" d="M19.89 4.637C20.602 4.751 21.275 4.929 21.9 5.167C21.766 4.952 21.63 4.741 21.488 4.537C21.2129 4.14534 20.9164 3.7691 20.6 3.41C19.8859 3.26869 19.1615 3.18608 18.434 3.163C18.949 3.585 19.436 4.078 19.888 4.637H19.89Z" stroke="#00863E" stroke-width="0.5"/>
<path fill-rule="evenodd" clip-rule="evenodd" d="M8.054 25.155C7.36766 25.0474 6.69415 24.8698 6.044 24.625C6.42628 25.2456 6.86051 25.8327 7.342 26.38C8.039 26.522 8.764 26.603 9.509 26.63C8.97494 26.1893 8.4874 25.695 8.054 25.155" fill="#00863E"/>
<path fill-rule="evenodd" clip-rule="evenodd" d="M8.054 25.155C7.36766 25.0474 6.69415 24.8698 6.044 24.625C6.42628 25.2456 6.86051 25.8327 7.342 26.38C8.039 26.522 8.764 26.603 9.509 26.63C8.97494 26.1893 8.4874 25.695 8.054 25.155V25.155Z" stroke="#00863E" stroke-width="0.5"/>
<path fill-rule="evenodd" clip-rule="evenodd" d="M22.515 19.844C22.263 20.767 21.945 21.641 21.567 22.448C22.343 21.848 23.057 21.207 23.7 20.533C23.9691 19.6098 24.169 18.6679 24.298 17.715C23.7658 18.4745 23.1693 19.1868 22.515 19.844" fill="#00863E"/>
<path fill-rule="evenodd" clip-rule="evenodd" d="M22.515 19.844C22.263 20.767 21.945 21.641 21.567 22.448C22.343 21.848 23.057 21.207 23.7 20.533C23.9691 19.6098 24.169 18.6679 24.298 17.715C23.7658 18.4745 23.1693 19.1868 22.515 19.844V19.844Z" stroke="#00863E" stroke-width="0.5"/>
</g>
</svg>
